<svg id="Layer_1" enable-background="new 0 0 512 512" viewBox="0 0 512 512" xmlns="http://www.w3.org/2000/svg"><path d="m491 101.19c3.31 0 6-2.69 6-6v-30.51c0-3.31-2.69-6-6-6h-136.54v-21.03c0-3.31-2.69-6-6-6h-184.92c-3.31 0-6 2.69-6 6v21.03h-136.54c-3.31 0-6 2.69-6 6v30.51c0 3.31 2.69 6 6 6h14.4v80.18h-13.55c-3.31 0-6 2.69-6 6v20.08c0 3.31 2.69 6 6 6h13.55v82.51h-13.55c-3.31 0-6 2.69-6 6v20.08c0 3.31 2.69 6 6 6h13.55v82.51h-13.55c-3.31 0-6 2.69-6 6v20.08c0 3.31 2.69 6 6 6h13.55v31.73c0 3.31 2.69 6 6 6h144.12 140.96 144.12c3.31 0 6-2.69 6-6v-31.73h13.55c3.31 0 6-2.69 6-6v-20.08c0-3.31-2.69-6-6-6h-13.55v-82.51h13.55c3.31 0 6-2.69 6-6v-20.08c0-3.31-2.69-6-6-6h-13.55v-82.51h13.55c3.31 0 6-2.69 6-6v-20.08c0-3.31-2.69-6-6-6h-13.55v-80.18zm-137.11-30.51h131.11v18.51h-152.52v-15.04h15.98c2.41 0 4.48-1.42 5.43-3.47zm-184.35-27.03h172.92v18.51h-172.92zm-142.54 27.03h131.11c.96 2.05 3.03 3.47 5.44 3.47h15.98v15.03h-152.53zm20.4 30.51h132.12v80.18h-6.87v-66.92c0-3.31-2.69-6-6-6h-51.78c-3.31 0-6 2.69-6 6v66.92h-61.47zm113.25 80.17h-39.78v-60.92h39.78zm-132.8 12h151.67v8.08h-151.67zm19.55 20.09h132.12v82.51h-6.87v-66.92c0-3.31-2.69-6-6-6h-51.78c-3.31 0-6 2.69-6 6v66.92h-61.47zm113.25 82.5h-39.78v-60.92h39.78zm-132.8 12h151.67v8.08h-151.67zm19.55 20.08h132.12v82.51h-6.87v-66.92c0-3.31-2.69-6-6-6h-51.78c-3.31 0-6 2.69-6 6v66.92h-61.47zm113.25 82.51h-39.78v-60.92h39.78zm-132.8 12h151.67v8.08h-151.67zm19.55 20.08h132.12v25.73h-132.12zm243.04 25.73h-28.44v-73.58h28.44zm-40.44 0h-28.44v-73.58h28.44zm52.44 0v-79.58c0-3.31-2.69-6-6-6h-80.87c-3.31 0-6 2.69-6 6v79.58h-18.04v-394.2h128.96v394.2zm162.16 0h-132.12v-25.73h132.12zm19.55-37.73h-151.67v-8.08h151.67zm-93.02-20.08h-39.78v-60.92h39.78zm73.47 0h-61.47v-66.92c0-3.31-2.69-6-6-6h-51.78c-3.31 0-6 2.69-6 6v66.92h-6.86v-82.51h132.11zm19.55-94.51h-151.67v-8.08h151.67zm-93.02-20.08h-39.78v-60.92h39.78zm73.47 0h-61.47v-66.92c0-3.31-2.69-6-6-6h-51.78c-3.31 0-6 2.69-6 6v66.92h-6.86v-82.51h132.11zm19.55-94.51h-151.67v-8.08h151.67zm-93.02-20.08h-39.78v-60.92h39.78zm73.47 0h-61.47v-66.92c0-3.31-2.69-6-6-6h-51.78c-3.31 0-6 2.69-6 6v66.92h-6.86v-80.18h132.11zm-45.54-11.22h32.68c3.31 0 6-2.69 6-6v-32.68c0-3.31-2.69-6-6-6h-32.68c-3.31 0-6 2.69-6 6v32.68c0 3.31 2.68 6 6 6zm6-32.68h20.68v20.68h-20.68zm-6 147.27h32.68c3.31 0 6-2.69 6-6v-32.68c0-3.31-2.69-6-6-6h-32.68c-3.31 0-6 2.69-6 6v32.68c0 3.31 2.68 6 6 6zm6-32.68h20.68v20.68h-20.68zm-6 147.27h32.68c3.31 0 6-2.69 6-6v-32.68c0-3.31-2.69-6-6-6h-32.68c-3.31 0-6 2.69-6 6v32.68c0 3.31 2.68 6 6 6zm6-32.68h20.68v20.68h-20.68zm-332.12-241.18h-32.68c-3.31 0-6 2.69-6 6v32.68c0 3.31 2.69 6 6 6h32.68c3.31 0 6-2.69 6-6v-32.68c0-3.31-2.69-6-6-6zm-6 32.68h-20.68v-20.68h20.68zm6 81.91h-32.68c-3.31 0-6 2.69-6 6v32.68c0 3.31 2.69 6 6 6h32.68c3.31 0 6-2.69 6-6v-32.68c0-3.31-2.69-6-6-6zm-6 32.68h-20.68v-20.68h20.68zm6 81.91h-32.68c-3.31 0-6 2.69-6 6v32.68c0 3.31 2.69 6 6 6h32.68c3.31 0 6-2.69 6-6v-32.68c0-3.31-2.69-6-6-6zm-6 32.68h-20.68v-20.68h20.68zm219.9-272.51h-101.68c-3.31 0-6 2.69-6 6v36.24c0 3.31 2.69 6 6 6h101.68c3.31 0 6-2.69 6-6v-36.24c0-3.31-2.68-6-6-6zm-6 36.24h-89.68v-24.24h89.68zm6 53.29h-101.68c-3.31 0-6 2.69-6 6v36.24c0 3.31 2.69 6 6 6h101.68c3.31 0 6-2.69 6-6v-36.24c0-3.31-2.68-6-6-6zm-6 36.25h-89.68v-24.24h89.68zm6 53.29h-101.68c-3.31 0-6 2.69-6 6v36.24c0 3.31 2.69 6 6 6h101.68c3.31 0 6-2.69 6-6v-36.24c0-3.32-2.68-6-6-6zm-6 36.24h-89.68v-24.24h89.68z" fill="rgb(0,0,0)"/></svg>