<svg xmlns="http://www.w3.org/2000/svg" version="1.1" xmlns:xlink="http://www.w3.org/1999/xlink" width="512" height="512" x="0" y="0" viewBox="0 0 512 512" style="enable-background:new 0 0 512 512" xml:space="preserve" class=""><g><path d="M7.5 429.501h497v30H7.5zM61.003 318.769V429.5m-30.001 0V318.769" style="fill-rule:evenodd;clip-rule:evenodd;stroke-width:15;stroke-miterlimit:22.9256;" fill-rule="evenodd" clip-rule="evenodd" fill="none" stroke="#000000" stroke-width="15" stroke-miterlimit="22.9256" data-original="#000000" class=""></path><circle cx="46.002" cy="302" r="22.5" style="fill-rule:evenodd;clip-rule:evenodd;stroke-width:15;stroke-miterlimit:22.9256;" fill-rule="evenodd" clip-rule="evenodd" fill="none" stroke="#000000" stroke-width="15" stroke-miterlimit="22.9256" data-original="#000000" class=""></circle><path d="M450.997 318.769V429.5m30 0V318.769" style="fill-rule:evenodd;clip-rule:evenodd;stroke-width:15;stroke-miterlimit:22.9256;" fill-rule="evenodd" clip-rule="evenodd" fill="none" stroke="#000000" stroke-width="15" stroke-miterlimit="22.9256" data-original="#000000" class=""></path><circle cx="465.997" cy="302" r="22.5" style="fill-rule:evenodd;clip-rule:evenodd;stroke-width:15;stroke-miterlimit:22.9256;" fill-rule="evenodd" clip-rule="evenodd" fill="none" stroke="#000000" stroke-width="15" stroke-miterlimit="22.9256" data-original="#000000" class=""></circle><path d="M61.003 386.268h389.995m-389.995-45h389.995M360.998 429.5V187.498H271V429.5m-119.999 0V187.498H241V429.5m-119.998 0V157.498C121.002 83.249 181.751 22.5 256 22.5s134.998 60.751 134.998 134.998V429.5m-30-272.002C360.998 99.808 313.69 52.5 256 52.5c-57.69 0-104.998 47.308-104.998 104.998h209.996zM31.003 459.5l30 30h337.495m14.999 0h37.5l30-30M447.248 146.248c10.313 0 18.75 8.438 18.75 18.75v37.5l-18.75 18.75-18.75-18.75v-37.5c0-10.313 8.437-18.75 18.75-18.75zM428.498 183.748h37.5M447.248 243.748v-22.5M64.752 146.248c-10.313 0-18.75 8.438-18.75 18.75v37.5l18.75 18.75 18.75-18.75v-37.5c0-10.313-8.438-18.75-18.75-18.75zM83.502 183.748h-37.5M64.752 243.748v-22.5M278.5 97.499v-15m29.999 30v-15" style="fill-rule:evenodd;clip-rule:evenodd;stroke-width:15;stroke-miterlimit:22.9256;" fill-rule="evenodd" clip-rule="evenodd" fill="none" stroke="#000000" stroke-width="15" stroke-miterlimit="22.9256" data-original="#000000" class=""></path></g></svg>